<svg t="1609586453606" class="icon" viewBox="0 0 1024 1024" version="1.1"
  xmlns="http://www.w3.org/2000/svg" p-id="11853"
  xmlns:xlink="http://www.w3.org/1999/xlink" width="200" height="200">
  <path d="M810.666667 746.666667v42.666666a21.333333 21.333333 0 0 1-21.333334 21.333334h-554.666666a21.333333 21.333333 0 0 1-21.333334-21.333334v-42.666666a21.333333 21.333333 0 0 1 21.333334-21.333334h554.666666a21.333333 21.333333 0 0 1 21.333334 21.333334zM704 170.666667h-42.666667a21.333333 21.333333 0 0 0-21.333333 21.333333V426.666667a128 128 0 0 1-256 0V192a21.333333 21.333333 0 0 0-21.333333-21.333333h-42.666667a21.333333 21.333333 0 0 0-21.333333 21.333333V426.666667a213.333333 213.333333 0 0 0 426.666666 0V192a21.333333 21.333333 0 0 0-21.333333-21.333333z" p-id="11854"></path>
</svg>