<svg t="1708092702639" class="icon" viewBox="0 0 1024 1024" version="1.1"
  xmlns="http://www.w3.org/2000/svg" p-id="4208" width="200" height="200">
  <path
    d="M986.498344 37.501656c-49.980876-49.980876-131.031811-49.980876-181.012687 0l-172.117243 172.117243-121.368414-121.368414-135.767515 135.767515 106.425348 106.425348-472.098494 472.098494c-8.063496 8.063496-11.455284 18.942816-10.303356 29.470158l-0.255984 0 0 159.990001c0 17.662896 14.335104 31.998 31.998 31.998l159.990001 0c0 0 2.655834 0 3.99975 0 9.215424 0 18.430848-3.51978 25.43841-10.527342l472.098494-472.098494 106.425348 106.425348 135.767515-135.767515-121.368414-121.368414 172.117243-172.117243c49.980876-49.980876 49.980876-131.031811 0-181.012687zM173.141179 959.940004l-109.081182 0 0-109.081182 469.538654-469.538654 109.081182 109.081182-469.538654 469.538654z"
    fill="#444444" p-id="4209"></path>
</svg>