<svg t="1706094658263" class="icon" viewBox="0 0 1030 1024" version="1.1"
  xmlns="http://www.w3.org/2000/svg" p-id="6080" width="200" height="200">
  <path
    d="M738.618409 646.405992c96.606263 96.606263 192.944918 192.944918 290.889218 290.621611-31.310063 29.169204-62.352519 57.803193-93.662582 86.972397-93.662582-93.662582-190.001237-190.001237-286.875107-286.875107-104.099269 71.451169-215.691545 95.535833-336.917687 66.901844-96.87387-22.746627-175.015224-75.732887-233.621239-156.282708-120.690927-165.648966-98.747122-390.439162 42.81718-530.130212 149.860131-147.719272 377.861615-153.339027 534.947145-33.450922C814.08369 205.389036 876.436208 448.644141 738.618409 646.405992zM728.984544 407.700212C728.984544 230.008915 585.814598 86.036146 408.658514 86.036146 231.502431 86.036146 86.994448 230.276522 86.994448 407.164998c0 178.226513 143.972768 322.466888 321.664066 321.664066C587.152634 728.293849 728.984544 585.926725 728.984544 407.700212z"
    p-id="6081"></path>
</svg>