<svg t="1609584786640" class="icon" viewBox="0 0 1024 1024" version="1.1"
  xmlns="http://www.w3.org/2000/svg" p-id="2477"
  xmlns:xlink="http://www.w3.org/1999/xlink" width="200" height="200">
  <path d="M704 465.066667A170.666667 170.666667 0 0 0 725.333333 384V341.333333a170.666667 170.666667 0 0 0-170.666666-170.666666H298.666667a42.666667 42.666667 0 0 0-42.666667 42.666666v554.666667a42.666667 42.666667 0 0 0 42.666667 42.666667h298.666666a170.666667 170.666667 0 0 0 170.666667-170.666667v-42.666667a170.666667 170.666667 0 0 0-64-132.266666zM554.666667 298.666667a42.666667 42.666667 0 0 1 42.666666 42.666666v42.666667a42.666667 42.666667 0 0 1-42.666666 42.666667H384V298.666667z m85.333333 341.333333a42.666667 42.666667 0 0 1-42.666667 42.666667H384v-128h213.333333a42.666667 42.666667 0 0 1 42.666667 42.666666z" p-id="2478"></path>
</svg>