<svg t="1704281214267" class="icon" viewBox="0 0 1085 1024" version="1.1"
  xmlns="http://www.w3.org/2000/svg" p-id="22438" width="200" height="200">
  <path
    d="M1077.947748 56.13802L703.553811 545.757877a26.21781 26.21781 0 0 1-40.214689 2.678973l-129.945219-129.102396a25.826499 25.826499 0 0 1 2.709074-39.943781L1028.823218 7.284397a36.331684 36.331684 0 0 1 46.024146 3.100384c11.919923 11.82962 13.30456 32.448679 3.100384 45.753239z m-541.333057 833.491568c-145.14613 144.243106-363.015829 171.755251-536.005213 82.686939a163.567829 163.567829 0 0 0 126.814733-189.755538c-0.451512-2.377964-1.204033-4.635526-1.775948-6.953288a242.130956 242.130956 0 0 1 64.415744-230.301336c95.690491-95.118575 250.830092-95.118575 346.520583 0a242.341662 242.341662 0 0 1 0.030101 344.323223z"
    p-id="22439"></path>
</svg>