<svg viewBox="0 0 1024 1024" version="1.1" xmlns="http://www.w3.org/2000/svg">
  <path d="M502.016 592.6912c-36.1472 35.9424-72.0896 72.192-108.3392 108.1344-14.6944 14.592-32.4096 19.8656-52.224 13.0048a48.0256 48.0256 0 0 1-33.4336-39.6288c-3.072-17.8176 3.4816-32.5632 15.9744-45.056 35.84-35.6864 71.6288-71.4752 107.3152-107.264 3.072-3.072 6.0416-6.3488 10.0864-10.496-14.2336-13.824-27.7504-27.1872-41.3184-40.5504-24.9344-24.832-49.92-49.664-74.6496-74.5984-23.1424-23.3984-24.32-53.6064-3.072-74.3424 20.8384-20.5312 50.6368-19.3536 73.5232 3.2768a39997.44 39997.44 0 0 1 105.472 105.728c3.1744 3.072 5.376 7.168 8.704 11.6224 5.1712-4.864 8.448-7.8336 11.4176-10.752 36.352-36.352 72.704-72.9088 109.2096-108.9536 14.4384-14.336 31.8976-19.3024 51.4048-12.8 18.7904 6.1952 30.208 19.8144 33.7408 39.3216 3.328 18.176-3.4816 33.2288-16.384 45.9264-35.6352 35.4304-70.9632 70.9632-106.496 106.496-3.328 3.0208-7.168 5.376-11.4176 8.704 4.9152 5.12 7.8336 8.2432 10.8544 11.3152 36.096 36.0448 72.192 71.9872 108.1856 108.2368 14.6432 14.592 20.1216 32.256 13.312 52.224a47.6672 47.6672 0 0 1-39.424 33.5872c-17.7152 3.072-32.5632-3.072-45.0048-15.7184-35.84-35.7888-71.68-71.5264-107.3664-107.4176-3.072-3.072-5.2736-7.168-8.192-11.4176-5.5808 5.4272-8.8064 8.2432-11.8784 11.4176zM0 512C0 794.7776 229.2224 1024 511.9488 1024S1024 794.7776 1024 512 794.6752 0 511.9488 0C229.2224 0 0 229.2224 0 512z"></path>
</svg>