<svg width="30" height="30" version="1.1" xmlns="http://www.w3.org/2000/svg">
  <path xmlns="http://www.w3.org/2000/svg" d="M14.866177558898926,4.999999999999998 c-6.302177700519562,0 -11.68572113776207,3.9223949769735333 -13.866177558898926,9.454999822974205 c2.180456421136856,5.534338118195534 7.563999858379364,9.454999822974205 13.866177558898926,9.454999822974205 s11.68572113776207,-3.9206617047786714 13.866177558898926,-9.454999822974205 c-2.180456421136856,-5.532604846000671 -7.563999858379364,-9.453266550779341 -13.866177558898926,-9.453266550779341 zm0,15.75891079568863 a6.305644244909287,6.305644244909287 0 0 1 -6.302177700519562,-6.303910972714424 A6.305644244909287,6.305644244909287 0 0 1 14.866177558898926,8.154555394649503 a6.305644244909287,6.305644244909287 0 0 1 6.302177700519562,6.302177700519562 A6.305644244909287,6.305644244909287 0 0 1 14.866177558898926,20.758910795688628 zm0,-10.084177629709243 a3.7768001126050947,3.7768001126050947 0 0 0 -3.781999929189682,3.7802666569948196 c0,2.0937928113937376 1.6899403899908068,3.781999929189682 3.781999929189682,3.781999929189682 a3.7768001126050947,3.7768001126050947 0 0 0 3.781999929189682,-3.781999929189682 A3.7768001126050947,3.7768001126050947 0 0 0 14.866177558898926,10.674733165979383 z"/>
</svg>