<svg t="1609245944505" class="icon" viewBox="0 0 1024 1024" version="1.1"
  xmlns="http://www.w3.org/2000/svg" p-id="2476"
  xmlns:xlink="http://www.w3.org/1999/xlink" width="200" height="200">
  <path d="M213.333333 896 42.666667 896c-25.6 0-42.666667-17.066667-42.666667-42.666667l0-170.666667c0-25.6 17.066667-42.666667 42.666667-42.666667s42.666667 17.066667 42.666667 42.666667l0 128 128 0c25.6 0 42.666667 17.066667 42.666667 42.666667S238.933333 896 213.333333 896z" p-id="2477"></path>
  <path d="M981.333333 896l-170.666667 0c-25.6 0-42.666667-17.066667-42.666667-42.666667s17.066667-42.666667 42.666667-42.666667l128 0 0-128c0-25.6 17.066667-42.666667 42.666667-42.666667s42.666667 17.066667 42.666667 42.666667l0 170.666667C1024 878.933333 1006.933333 896 981.333333 896z" p-id="2478"></path>
  <path d="M981.333333 384c-25.6 0-42.666667-17.066667-42.666667-42.666667L938.666667 213.333333l-128 0c-25.6 0-42.666667-17.066667-42.666667-42.666667s17.066667-42.666667 42.666667-42.666667l170.666667 0c25.6 0 42.666667 17.066667 42.666667 42.666667l0 170.666667C1024 366.933333 1006.933333 384 981.333333 384z" p-id="2479"></path>
  <path d="M42.666667 384C17.066667 384 0 366.933333 0 341.333333L0 170.666667c0-25.6 17.066667-42.666667 42.666667-42.666667l170.666667 0c25.6 0 42.666667 17.066667 42.666667 42.666667S238.933333 213.333333 213.333333 213.333333L85.333333 213.333333l0 128C85.333333 366.933333 68.266667 384 42.666667 384z" p-id="2480"></path>
</svg>