<svg t="1705504940378" class="icon" viewBox="0 0 1024 1024" version="1.1"
  xmlns="http://www.w3.org/2000/svg" p-id="4319" width="200" height="200">
  <path
    d="M576.10142 64c0-35.4-28.6-64-64-64s-64 28.6-64 64v416c0 17.6-14.4 32-32 32s-32-14.4-32-32V128c0-35.4-28.6-64-64-64s-64 28.6-64 64v544c0 3 0 6.2 0.2 9.2L135.30142 566c-32-30.4-82.6-29.2-113.2 2.8s-29.2 82.6 2.8 113.2l224.8 214c86.2 82.2 200.8 128 320 128H608.10142c194.4 0 352-157.6 352-352V256c0-35.4-28.6-64-64-64s-64 28.6-64 64v224c0 17.6-14.4 32-32 32s-32-14.4-32-32V128c0-35.4-28.6-64-64-64s-64 28.6-64 64v352c0 17.6-14.4 32-32 32s-32-14.4-32-32V64z"
    p-id="4320"></path>
</svg>