<svg t="1609585836525" class="icon" viewBox="0 0 1024 1024" version="1.1"
  xmlns="http://www.w3.org/2000/svg" p-id="11723"
  xmlns:xlink="http://www.w3.org/1999/xlink" width="200" height="200">
  <path d="M704 256h-35.413333a42.666667 42.666667 0 0 0-40.533334 28.586667l-141.653333 412.586666a21.333333 21.333333 0 0 0 20.053333 28.16h26.88a21.333333 21.333333 0 0 1 21.333334 21.333334v42.666666a21.333333 21.333333 0 0 1-21.333334 21.333334h-213.333333a21.333333 21.333333 0 0 1-21.333333-21.333334v-42.666666a21.333333 21.333333 0 0 1 21.333333-21.333334h35.413333a42.666667 42.666667 0 0 0 40.533334-28.586666l141.653333-412.586667a21.333333 21.333333 0 0 0-20.48-28.16h-26.453333a21.333333 21.333333 0 0 1-21.333334-21.333333v-42.666667a21.333333 21.333333 0 0 1 21.333334-21.333333h213.333333a21.333333 21.333333 0 0 1 21.333333 21.333333v42.666667a21.333333 21.333333 0 0 1-21.333333 21.333333z" p-id="11724"></path>
</svg>