<svg t="1627028397686" class="icon" viewBox="0 0 1024 1024" version="1.1" xmlns="http://www.w3.org/2000/svg" p-id="9788" width="200" height="200">
  <path d="M794.432 983.552H51.2a25.6 25.6 0 0 1-25.6-25.6V214.784a25.6 25.6 0 0 1 25.6-25.6h152.768V66.112a25.6 25.6 0 0 1 25.6-25.6H972.8a25.6 25.6 0 0 1 25.6 25.6v743.232a25.6 25.6 0 0 1-25.6 25.6h-152.768v123.008a25.6 25.6 0 0 1-25.6 25.6z m-717.632-51.2h692.032V240.384H76.8v691.968z m743.232-148.672H947.2V91.648H255.168v97.472h539.264a25.6 25.6 0 0 1 25.6 25.6v568.96z" p-id="9789"></path>
</svg>