<svg t="1707132241311" class="icon" viewBox="0 0 1024 1024" version="1.1"
  xmlns="http://www.w3.org/2000/svg" p-id="13908" width="200" height="200">
  <path
    d="M138.81344 45.3632a98.05824 98.05824 0 0 1 138.57792-4.84352l98.36544 91.72992 41.728-50.41152a71.68 71.68 0 0 1 105.02144-5.86752l404.224 390.3488a71.64928 71.64928 0 0 1 13.7216 18.28864c37.84704 53.1968 59.20768 105.41056 64.1024 156.66176 7.91552 82.8416-30.4128 111.0016-64.69632 113.408a62.21824 62.21824 0 0 1-66.4064-57.72288c-2.39616-34.28352 38.11328-62.94528 51.74272-106.46528 2.6624-8.48896 4.79232-17.22368 6.4-26.2144-2.1504 2.51904-4.5056 4.93568-7.0656 7.20896l-466.57536 414.3104a71.68 71.68 0 0 1-97.3824-2.048L25.1392 659.85536a71.68 71.68 0 0 1-5.4272-97.25952l230.8096-278.9888-106.88512-99.65568c-38.87104-36.2496-41.6768-96.68608-6.85056-136.36608z m333.90592 82.16576l-44.4416 53.68832 134.53312 125.45024a35.84 35.84 0 0 1 3.15392 49.07008l-1.39264 1.5872a35.84 35.84 0 0 1-50.64704 1.76128L382.50496 236.544 74.9568 608.27648l335.4112 323.91168 466.57536-414.3104-404.21376-390.3488zM228.5056 92.93824a26.37824 26.37824 0 0 0-35.97312 38.58432l103.77216 96.768 33.6896-40.72448z"
    fill="#000000" p-id="13909"></path>
</svg>