<svg t="1609249837849" class="icon" viewBox="0 0 1024 1024" version="1.1"
  xmlns="http://www.w3.org/2000/svg" p-id="3464"
  xmlns:xlink="http://www.w3.org/1999/xlink" width="200" height="200">
  <path d="M768 469.333333h-256c-25.6 0-42.666667 17.066667-42.666667 42.666667v170.666667c0 21.333333 17.066667 42.666667 42.666667 42.666666h256c21.333333 0 42.666667-21.333333 42.666667-42.666666v-170.666667c0-25.6-21.333333-42.666667-42.666667-42.666667z m213.333333 341.333334V213.333333c0-46.933333-38.4-85.333333-85.333333-85.333333H128c-46.933333 0-85.333333 38.4-85.333333 85.333333v597.333334c0 46.933333 38.4 85.333333 85.333333 85.333333h768c46.933333 0 85.333333-38.4 85.333333-85.333333z m-128 0H170.666667c-21.333333 0-42.666667-21.333333-42.666667-42.666667V256c0-21.333333 21.333333-42.666667 42.666667-42.666667h682.666666c21.333333 0 42.666667 21.333333 42.666667 42.666667v512c0 25.6-21.333333 42.666667-42.666667 42.666667z" p-id="3465"></path>
</svg>