<svg t="1609586597960" class="icon" viewBox="0 0 1024 1024" version="1.1"
  xmlns="http://www.w3.org/2000/svg" p-id="11983"
  xmlns:xlink="http://www.w3.org/1999/xlink" width="200" height="200">
  <path d="M853.333333 448v42.666667a21.333333 21.333333 0 0 1-21.333333 21.333333h-640a21.333333 21.333333 0 0 1-21.333333-21.333333v-42.666667a21.333333 21.333333 0 0 1 21.333333-21.333333H469.333333V256H277.333333a21.333333 21.333333 0 0 1-21.333333-21.333333v-42.666667a21.333333 21.333333 0 0 1 21.333333-21.333333h469.333334a21.333333 21.333333 0 0 1 21.333333 21.333333v42.666667a21.333333 21.333333 0 0 1-21.333333 21.333333H554.666667v170.666667h277.333333a21.333333 21.333333 0 0 1 21.333333 21.333333z m-384 341.333333a21.333333 21.333333 0 0 0 21.333334 21.333334h42.666666a21.333333 21.333333 0 0 0 21.333334-21.333334V597.333333h-85.333334z" p-id="11984"></path>
</svg>