<svg t="1608646631805" class="icon" viewBox="0 0 1024 1024" version="1.1"
  xmlns="http://www.w3.org/2000/svg" p-id="3454"
  xmlns:xlink="http://www.w3.org/1999/xlink" width="200" height="200">
  <path d="M558.05 144.08L380.11 322H175.99c-26.52 0-48 21.48-48 48v288c0 26.5 21.48 48 48 48h204.12l177.94 177.9c30.06 30.06 81.94 8.94 81.94-33.94V178.04c0-42.94-51.92-63.96-81.94-33.96z m246.4 216.16c-23.16-12.66-52.38-4.32-65.22 18.9-12.78 23.22-4.32 52.4 18.9 65.22C783.95 458.56 799.99 485.24 799.99 514c0 28.76-16.04 55.44-41.84 69.62-23.22 12.82-31.68 42-18.9 65.22 12.86 23.32 42.1 31.6 65.22 18.9 56.46-31.1 91.54-90 91.54-153.76s-35.08-122.64-91.56-153.74z" p-id="3455"></path>
</svg>