<svg t="1608646511970" class="icon" viewBox="0 0 1024 1024" version="1.1"
  xmlns="http://www.w3.org/2000/svg" p-id="3324"
  xmlns:xlink="http://www.w3.org/1999/xlink" width="200" height="200">
  <path d="M462.06 142.1L284.12 320H80c-26.52 0-48 21.48-48 48v288c0 26.5 21.48 48 48 48h204.12l177.94 177.9c30.06 30.06 81.94 8.94 81.94-33.94V176.04c0-42.92-51.92-63.96-81.94-33.94zM992 512c0-127.06-64.12-243.88-171.54-312.48-22.38-14.28-52.06-7.64-66.24 14.92s-7.56 52.42 14.82 66.72C848.54 331.94 896 418.22 896 512s-47.46 180.06-126.96 230.84c-22.38 14.28-29 44.14-14.82 66.72 13.02 20.72 42.24 30.28 66.24 14.92C927.88 755.88 992 639.06 992 512z m-283.54-153.74c-23.16-12.66-52.38-4.32-65.22 18.9-12.78 23.22-4.32 52.4 18.9 65.22C687.96 456.56 704 483.26 704 512c0 28.76-16.04 55.44-41.84 69.62-23.22 12.82-31.68 42-18.9 65.22 12.86 23.32 42.1 31.6 65.22 18.9 56.46-31.1 91.54-90 91.54-153.76s-35.08-122.64-91.56-153.72z" p-id="3325"></path>
</svg>