<svg t="1651562439344" class="icon" viewBox="0 0 1024 1024" version="1.1" xmlns="http://www.w3.org/2000/svg" p-id="3863" xmlns:xlink="http://www.w3.org/1999/xlink" width="200" height="200">
  <path d="M512 736c-105.888 0-192-86.112-192-192s86.112-192 192-192 192 86.112 192 192S617.888 736 512 736zM512 416c-70.592 0-128 57.408-128 128 0 70.592 57.408 128 128 128 70.592 0 128-57.408 128-128C640 473.408 582.592 416 512 416z" p-id="3864"></path>
  <path d="M864 896 160 896c-52.928 0-96-43.072-96-96L64 288c0-52.928 43.072-96 96-96l96 0c17.664 0 32 14.336 32 32S273.664 256 256 256L160 256C142.368 256 128 270.368 128 288l0 512c0 17.664 14.368 32 32 32l704 0c17.664 0 32-14.336 32-32L896 288c0-17.632-14.336-32-32-32L512 256c-17.664 0-32-14.336-32-32s14.336-32 32-32l352 0c52.928 0 96 43.072 96 96l0 512C960 852.928 916.928 896 864 896z" p-id="3865"></path>
  <path d="M816 336m-48 0a1.5 1.5 0 1 0 96 0 1.5 1.5 0 1 0-96 0Z" p-id="3866"></path>
  <path d="M480 128c0 17.664-14.336 32-32 32l-128 0C302.336 160 288 145.664 288 128l0 0c0-17.664 14.336-32 32-32l128 0C465.664 96 480 110.336 480 128L480 128z" p-id="3867"></path>
</svg>