<?xml version="1.0" encoding="utf-8"?>
<svg t="1687779772549" class="icon" viewBox="0 0 1024 1024" version="1.1" p-id="12570" width="200" height="200" xmlns="http://www.w3.org/2000/svg">
  <path d="M 692.866 768 L 692.866 841.152 C 692.866 851.051 689.25 859.627 682.018 866.88 C 674.786 874.133 666.21 877.749 656.29 877.728 L 363.714 877.728 C 353.815 877.728 345.239 874.112 337.986 866.88 C 330.732 859.648 327.116 851.072 327.138 841.152 L 327.138 768 C 327.138 758.101 330.754 749.525 337.986 742.272 C 345.218 735.019 353.794 731.403 363.714 731.424 L 400.29 731.424 L 400.29 512 L 363.714 512 C 353.815 512 345.239 508.384 337.986 501.152 C 330.732 493.92 327.116 485.344 327.138 475.424 L 327.138 402.272 C 327.138 392.373 330.754 383.797 337.986 376.544 C 345.218 369.291 353.794 365.675 363.714 365.696 L 583.138 365.696 C 593.036 365.696 601.612 369.312 608.866 376.544 C 616.119 383.776 619.735 392.352 619.714 402.272 L 619.714 731.424 L 656.29 731.424 C 666.188 731.424 674.764 735.04 682.018 742.272 C 689.271 749.504 692.887 758.08 692.866 768 Z M 619.714 109.728 L 619.714 219.456 C 619.714 229.355 616.098 237.931 608.866 245.184 C 601.634 252.437 593.058 256.053 583.138 256.032 L 436.866 256.032 C 426.967 256.032 418.391 252.416 411.138 245.184 C 403.884 237.952 400.268 229.376 400.29 219.456 L 400.29 109.728 C 400.29 99.829 403.906 91.253 411.138 84 C 418.37 76.747 426.946 73.131 436.866 73.152 L 583.138 73.152 C 593.036 73.152 601.612 76.768 608.866 84 C 616.119 91.232 619.735 99.808 619.714 109.728 Z" p-id="12571"/>
</svg>