<svg viewBox="0 0 1024 1024" version="1.1" xmlns="http://www.w3.org/2000/svg">
  <path d="M1006.4 876.4L585.6 64.128C545.136-14 478.88-14 438.416 64.128L17.6 876.4c-40.464 78.128-1.6 142.064 86.4 142.064h816c88 0 126.88-63.936 86.4-142.064zM460.816 313.168c0-28.256 22.912-51.184 51.184-51.184s51.216 22.944 51.216 51.184V658.8c0 28.256-22.944 51.184-51.216 51.184s-51.184-22.944-51.184-51.184V313.168z m51.184 592c-35.344 0-64-28.624-64-64 0-35.344 28.656-64 64-64s64 28.656 64 64c0 35.376-28.656 64-64 64z" fill=""></path>
</svg>