<svg t="1736591976057" class="icon" viewBox="0 0 1024 1024" version="1.1"
  xmlns="http://www.w3.org/2000/svg" p-id="1677" width="200" height="200">
  <path d="M80 34.4h864v960H80z" fill="#8095FF" p-id="1678"></path>
  <path d="M176 112m-40 0a40 40 0 1 0 80 0 40 40 0 1 0-80 0Z" fill="#FFFFFF" p-id="1679"></path>
  <path d="M176 272m-40 0a40 40 0 1 0 80 0 40 40 0 1 0-80 0Z" fill="#FFFFFF" p-id="1680"></path>
  <path d="M176 432m-40 0a40 40 0 1 0 80 0 40 40 0 1 0-80 0Z" fill="#FFFFFF" p-id="1681"></path>
  <path d="M176 592m-40 0a40 40 0 1 0 80 0 40 40 0 1 0-80 0Z" fill="#FFFFFF" p-id="1682"></path>
  <path d="M176 752m-40 0a40 40 0 1 0 80 0 40 40 0 1 0-80 0Z" fill="#FFFFFF" p-id="1683"></path>
  <path d="M176 912m-40 0a40 40 0 1 0 80 0 40 40 0 1 0-80 0Z" fill="#FFFFFF" p-id="1684"></path>
  <path d="M864 112m-40 0a40 40 0 1 0 80 0 40 40 0 1 0-80 0Z" fill="#FFFFFF" p-id="1685"></path>
  <path d="M864 272m-40 0a40 40 0 1 0 80 0 40 40 0 1 0-80 0Z" fill="#FFFFFF" p-id="1686"></path>
  <path d="M864 432m-40 0a40 40 0 1 0 80 0 40 40 0 1 0-80 0Z" fill="#FFFFFF" p-id="1687"></path>
  <path d="M864 592m-40 0a40 40 0 1 0 80 0 40 40 0 1 0-80 0Z" fill="#FFFFFF" p-id="1688"></path>
  <path d="M864 752m-40 0a40 40 0 1 0 80 0 40 40 0 1 0-80 0Z" fill="#FFFFFF" p-id="1689"></path>
  <path d="M864 912m-40 0a40 40 0 1 0 80 0 40 40 0 1 0-80 0Z" fill="#FFFFFF" p-id="1690"></path>
  <path
    d="M648 508L436 362.4c-4.8-3.2-11.2-4-16.8-0.8-5.6 3.2-8.8 8.8-8.8 14.4v290.4c0 5.6 3.2 11.2 8.8 14.4 5.6 3.2 12 2.4 16.8-0.8L648 533.6c4.8-2.4 7.2-8 7.2-12.8 0-4.8-3.2-9.6-7.2-12.8z"
    fill="#FFFFFF" p-id="1691"></path>
</svg>