<svg t="1655007457910" class="icon" viewBox="0 0 1024 1024" version="1.1" xmlns="http://www.w3.org/2000/svg" p-id="4524" xmlns:xlink="http://www.w3.org/1999/xlink" width="200" height="200">
  <path d="M321.287758 181.21697a31.030303 31.030303 0 0 1 31.030303-31.030303h496.484848a31.030303 31.030303 0 0 1 31.030303 31.030303v496.484848a31.030303 31.030303 0 0 1-31.030303 31.030303h-186.181818a31.030303 31.030303 0 1 1 0-62.060606h155.151515v-434.424242h-434.424242v155.151515a31.030303 31.030303 0 1 1-62.060606 0v-186.181818z" fill="#303133" p-id="4525"></path>
  <path d="M135.105939 367.398788a31.030303 31.030303 0 0 1 31.030303-31.030303h496.484849a31.030303 31.030303 0 0 1 31.030303 31.030303v496.484848a31.030303 31.030303 0 0 1-31.030303 31.030303h-496.484849a31.030303 31.030303 0 0 1-31.030303-31.030303v-496.484848z m62.060606 31.030303v434.424242h434.424243v-434.424242h-434.424243z" fill="#303133" p-id="4526"></path>
</svg>