<svg t="1608445150441" class="icon" viewBox="0 0 1024 1024" version="1.1"
  xmlns="http://www.w3.org/2000/svg" p-id="1169"
  xmlns:xlink="http://www.w3.org/1999/xlink" width="200" height="200">
  <path d="M869.006462 880.667547 165.670715 880.667547c-3.466961-0.642636-6.928806-1.357927-10.416234-1.918699-42.908252-6.864338-79.71146-40.74396-90.024339-82.942037-0.99056-4.059456-1.697665-8.188496-2.533706-12.289907L62.696436 243.391333c0.454348-2.176572 0.899486-4.353145 1.367137-6.522554 9.824763-45.260833 37.551244-74.27361 80.996732-88.787162 6.653537-2.222621 13.728676-3.199878 20.61041-4.751211l242.86433 0c3.989871 2.605338 8.575306 4.606925 11.865235 7.90504 31.887244 31.969109 63.582107 64.123436 95.226828 96.341209 2.934842 2.990101 5.861498 4.300956 10.120498 4.29277 105.524358-0.119727 211.045647-0.11154 316.568982-0.041956 6.932899 0.008186 13.921058 0.318248 20.793582 1.216711 45.231157 5.960759 84.711334 41.614793 95.39772 85.936231 1.052982 4.370541 1.868557 8.801457 2.793626 13.201673l0 433.275008c-0.638543 3.282766-1.238201 6.577812-1.915629 9.846252-8.582469 41.289382-32.04995 69.310575-73.013921 81.557504C880.707968 878.558513 874.795305 879.426277 869.006462 880.667547L869.006462 880.667547zM516.616646 837.125869 853.686545 837.125869c2.587941 0 5.180999-0.005117 7.774057-0.077771 11.299347-0.294712 21.698185-3.586688 30.825053-10.19213 18.267039-13.229303 25.568329-31.782867 25.568329-53.806463-0.021489-136.480394 0.01228-272.951579-0.095167-409.43402-0.004093-5.431709-0.532119-11.04966-1.938142-16.281825-8.157797-30.494525-37.551244-52.244898-70.28374-52.250014-110.416785-0.030699-220.832548-0.063445-331.240123 0.090051-8.711406 0.013303-15.503089-2.715855-21.578458-8.916067-31.621185-32.252565-63.402005-64.345494-95.252411-96.365768-1.602498-1.606591-4.383844-2.888793-6.613628-2.892887-71.39505-0.150426-142.794194 0.197498-214.18822-0.261966-35.032888-0.221034-71.059406 31.486108-70.861908 71.172993 0.839111 170.476673 0.355087 340.953346 0.355087 511.428995 0 1.462305 0.01842 2.914376 0 4.370541-0.110517 14.575973 4.979408 27.259854 14.426571 38.131459 15.152095 17.408485 34.498722 25.341155 57.498552 25.326828C290.923394 837.077773 403.772578 837.125869 516.616646 837.125869L516.616646 837.125869zM516.616646 837.125869" p-id="1170"></path>
</svg>