<svg t="1608482822405" class="icon" viewBox="0 0 1024 1024" version="1.1"
  xmlns="http://www.w3.org/2000/svg" p-id="2649"
  xmlns:xlink="http://www.w3.org/1999/xlink" width="200" height="200">
  <path d="M256 232V152c0-17.674 14.326-32 32-32h704c17.674 0 32 14.326 32 32v80c0 17.674-14.326 32-32 32H288c-17.674 0-32-14.326-32-32z m32 352h704c17.674 0 32-14.326 32-32v-80c0-17.674-14.326-32-32-32H288c-17.674 0-32 14.326-32 32v80c0 17.674 14.326 32 32 32z m0 320h704c17.674 0 32-14.326 32-32v-80c0-17.674-14.326-32-32-32H288c-17.674 0-32 14.326-32 32v80c0 17.674 14.326 32 32 32zM32 288h128c17.674 0 32-14.326 32-32V128c0-17.674-14.326-32-32-32H32C14.326 96 0 110.326 0 128v128c0 17.674 14.326 32 32 32z m0 320h128c17.674 0 32-14.326 32-32v-128c0-17.674-14.326-32-32-32H32c-17.674 0-32 14.326-32 32v128c0 17.674 14.326 32 32 32z m0 320h128c17.674 0 32-14.326 32-32v-128c0-17.674-14.326-32-32-32H32c-17.674 0-32 14.326-32 32v128c0 17.674 14.326 32 32 32z" p-id="2650"></path>
</svg>